<svg aria-hidden="true" style="position: absolute; width: 0; height: 0; overflow: hidden;" version="1.1" xmlns="http://www.w3.org/2000/svg" xmlns:xlink="http://www.w3.org/1999/xlink">
    <defs>        
       <symbol id="icon-check" viewBox="0 0 32 32">
            <path d="M12.644 23.867l-7.511-7.511 1.589-1.589 5.922 5.922 12.611-12.611 1.589 1.589-14.2 14.2z"></path>
        </symbol>
        <symbol id="icon-to-footer" viewBox="0 0 32 32">
            <path d="M16.947 17.867a1.344 1.344 0 0 1-.947.394 1.344 1.344 0 0 1-.947-.394l-6.107-6.12a1.334 1.334 0 1 0-1.894 1.88l6.12 6.12a4.001 4.001 0 0 0 5.654 0l6.12-6.12a1.337 1.337 0 0 0-.434-2.172 1.331 1.331 0 0 0-1.46.292l-6.107 6.12z"/>
        </symbol>
    </defs>
</svg>
